# xmcd
#
# Track frame offsets: 
#        182
#        10000
#        25587
#        38237
#        54610
#        68327
#        82595
#        93782
#        108280
#        120300
#
# Disc length: 1848 seconds
#
# Revision: 2
# Processed by: cddbd v1.5PL3 Copyright (c) Steve Scherf et al.
# Submitted via: ExactAudioCopy v0.95a3
#
DISCID=5d07360a
DTITLE=Shane Barmby - Jukebox Symphony
DYEAR=1991
DGENRE=
TTITLE0=One Night
TTITLE1=She Won't Be Lonely For Long
TTITLE2=When Was The Last Time
TTITLE3=One And One And One
TTITLE4=Hard Headed And Broken Hearted
TTITLE5=Remember The Ride
TTITLE6=Jukebox Symphony
TTITLE7=Missing Her Is Easier This Way
TTITLE8=This Tear's On Me
TTITLE9=A Cowboy Callin'
EXTD=
EXTT0=
EXTT1=
EXTT2=
EXTT3=
EXTT4=
EXTT5=
EXTT6=
EXTT7=
EXTT8=
EXTT9=
PLAYORDER=
